<?xml version="1.0" standalone="no"?>
<!DOCTYPE svg PUBLIC "-//W3C//DTD SVG 20010904//EN"
 "http://www.w3.org/TR/2001/REC-SVG-20010904/DTD/svg10.dtd">
<svg version="1.0" xmlns="http://www.w3.org/2000/svg"
 width="512.000000pt" height="512.000000pt" viewBox="0 0 512.000000 512.000000"
 preserveAspectRatio="xMidYMid meet">

<g transform="translate(0.000000,512.000000) scale(0.100000,-0.100000)"
fill="#ffffff" stroke="none">
<path d="M3910 4789 c-30 -12 -2065 -2042 -2086 -2081 -11 -22 -14 -97 -14
-410 0 -365 1 -385 20 -416 11 -18 34 -41 52 -52 31 -19 51 -20 416 -20 313 0
388 3 410 14 15 8 489 477 1054 1043 913 914 1027 1032 1033 1066 17 90 23 82
-368 476 -203 203 -376 369 -394 377 -37 16 -87 17 -123 3z m285 -599 l220
-220 -95 -95 -96 -95 -222 222 -222 223 92 92 c51 51 95 93 98 93 3 0 104 -99
225 -220z m-417 -422 l218 -217 -711 -711 -710 -710 -223 0 -222 0 0 222 0
223 707 707 c390 390 711 707 715 706 4 -2 105 -101 226 -220z"/>
<path d="M1000 4635 c-313 -62 -558 -294 -656 -620 -17 -57 -19 -143 -21
-1492 -3 -1395 -3 -1435 16 -1530 24 -119 95 -267 171 -361 118 -144 302 -256
482 -293 95 -19 137 -19 1525 -17 l1428 3 80 23 c258 73 473 265 566 507 60
154 60 149 57 1072 -3 832 -3 842 -24 869 -53 72 -128 91 -204 52 -33 -17 -51
-35 -67 -68 l-23 -44 0 -816 c0 -898 1 -884 -63 -1004 -67 -127 -212 -235
-355 -265 -73 -15 -2764 -15 -2848 0 -200 36 -377 212 -413 413 -15 84 -15
2774 0 2848 30 143 138 288 265 355 120 64 106 63 1004 63 l816 0 44 23 c89
44 114 156 54 235 -50 65 -9 62 -931 61 -643 -1 -853 -4 -903 -14z"/>
</g>
</svg>
